<svg width="65" height="64" viewBox="0 0 65 64" fill="none" xmlns="http://www.w3.org/2000/svg">
<path d="M44 48.5H5.9C4.9 48.5 4 48 4 47.4V11.6C4 11 4.9 10.5 5.9 10.5H59.1C60.1 10.5 61 11 61 11.6V47.4C61 48 60.1 48.5 59.1 48.5H54" stroke="#025B75" stroke-width="3" stroke-linecap="round" stroke-linejoin="round"/>
<path d="M11 29.5H36" stroke="#025B75" stroke-width="3" stroke-linecap="round" stroke-linejoin="round"/>
<path d="M11 20.5H54" stroke="#025B75" stroke-width="3" stroke-linecap="round" stroke-linejoin="round"/>
<path d="M11 38.5H36" stroke="#025B75" stroke-width="3" stroke-linecap="round" stroke-linejoin="round"/>
<path d="M44 42.5V58.5L48.5 55.8L53 58.5V41.5" stroke="#025B75" stroke-width="3" stroke-miterlimit="10" stroke-linecap="round" stroke-linejoin="round"/>
<path d="M48 43.5C51.866 43.5 55 40.366 55 36.5C55 32.634 51.866 29.5 48 29.5C44.134 29.5 41 32.634 41 36.5C41 40.366 44.134 43.5 48 43.5Z" stroke="#025B75" stroke-width="3" stroke-miterlimit="10" stroke-linecap="round" stroke-linejoin="round"/>
<path d="M48 37.5C48.5523 37.5 49 37.0523 49 36.5C49 35.9477 48.5523 35.5 48 35.5C47.4477 35.5 47 35.9477 47 36.5C47 37.0523 47.4477 37.5 48 37.5Z" stroke="#025B75" stroke-width="3" stroke-miterlimit="10" stroke-linecap="round" stroke-linejoin="round"/>
</svg>
