<svg width="65" height="64" viewBox="0 0 65 64" fill="none" xmlns="http://www.w3.org/2000/svg">
<path d="M20.7215 40.5003L19.2552 40.1844L19.0364 41.2002L19.9105 41.7621L20.7215 40.5003ZM12.5 41.5L11.1224 40.9066L10.8759 41.4787L11.1073 42.0571L12.5 41.5ZM17.5 54L18.8315 54.6908L19.1479 54.0809L18.8927 53.443L17.5 54ZM34.2044 59.0266C33.7869 59.7421 34.0285 60.6606 34.744 61.0781C35.4595 61.4957 36.378 61.2541 36.7956 60.5386L34.2044 59.0266ZM13.1685 59.0918C12.787 59.8271 13.0739 60.7325 13.8092 61.114C14.5446 61.4956 15.45 61.2087 15.8315 60.4733L13.1685 59.0918ZM11.1073 42.0571L16.1073 54.5571L18.8927 53.443L13.8927 40.943L11.1073 42.0571ZM40.2044 48.7442L34.2044 59.0266L36.7956 60.5386L42.7956 50.2562L40.2044 48.7442ZM16.1685 53.3093L13.1685 59.0918L15.8315 60.4733L18.8315 54.6908L16.1685 53.3093ZM22.1879 40.8161C22.8165 37.8975 23.684 34.8136 23.9394 32.3095C24.1974 29.7799 23.9227 27.1099 21.5864 25.4612L19.8567 27.9124C20.7988 28.5772 21.1857 29.7422 20.9549 32.0051C20.7215 34.2935 19.9498 36.9596 19.2552 40.1844L22.1879 40.8161ZM21.5864 25.4612C21.073 25.099 20.4751 24.7882 19.8036 24.708C19.0708 24.6206 18.4028 24.8257 17.8475 25.2338C17.3392 25.6073 16.9613 26.1223 16.6631 26.6321C16.3583 27.1533 16.0789 27.7712 15.8079 28.4455C15.2724 29.7772 14.6802 31.5615 13.955 33.6113C13.2189 35.6919 12.3163 38.135 11.1224 40.9066L13.8776 42.0935C15.108 39.2372 16.0354 36.7255 16.7832 34.6119C17.5418 32.4676 18.0873 30.8183 18.5913 29.5645C18.84 28.946 19.0559 28.4832 19.2527 28.1466C19.4562 27.7987 19.5865 27.6788 19.6239 27.6513C19.6331 27.6446 19.6118 27.6618 19.5628 27.6754C19.5116 27.6896 19.4684 27.6893 19.4481 27.6869C19.4283 27.6845 19.5504 27.6963 19.8567 27.9124L21.5864 25.4612ZM19.9105 41.7621C21.2264 42.6079 23.0676 43.7264 24.6282 45.8311C26.1661 47.9053 27.5 51.0441 27.5 56.0002H30.5C30.5 50.4563 28.9911 46.6784 27.038 44.0443C25.1075 41.4406 22.8095 40.0592 21.5326 39.2384L19.9105 41.7621Z" fill="#025B75"/>
<rect width="6.82159" height="9.84657" rx="3" transform="matrix(0.290187 0.95697 -0.913388 0.407089 47.7344 34.7695)" stroke="#025B75" stroke-width="3" stroke-linejoin="round"/>
<rect width="6.82159" height="13.1571" rx="3" transform="matrix(0.290187 0.95697 -0.913388 0.407089 48.5156 26.8848)" stroke="#025B75" stroke-width="3" stroke-linejoin="round"/>
<rect width="6.82159" height="13.1571" rx="3" transform="matrix(0.290187 0.95697 -0.913388 0.407089 48.5156 19)" stroke="#025B75" stroke-width="3" stroke-linejoin="round"/>
<path fill-rule="evenodd" clip-rule="evenodd" d="M38.1 5.75V7.125C38.1 8.49174 38.1 9.17922 37.7563 9.52502C37.4084 9.875 36.7084 9.875 35.3 9.875H29.7C28.2916 9.875 27.5916 9.875 27.2437 9.52502C26.9 9.17922 26.9 8.49174 26.9 7.125V5.75H24.1C22.5512 5.75 21.3 6.97891 21.3 8.5V27H18.5V8.5C18.5 5.46641 21.0113 3 24.1 3H40.9C43.9888 3 46.5 5.46641 46.5 8.5V21H43.7V8.5C43.7 6.97891 42.4487 5.75 40.9 5.75H38.1ZM35.3 5.75H29.7V7.5H35.3V5.75Z" fill="#025B75"/>
<path d="M28 51.5H40.9C43.9888 51.5 46.5 49.0336 46.5 46V43H43.7V46C43.7 47.5211 42.4487 48.75 40.9 48.75H28V51.5Z" fill="#025B75"/>
</svg>
