<svg width="65" height="64" viewBox="0 0 65 64" fill="none" xmlns="http://www.w3.org/2000/svg">
<g clip-path="url(#clip0_5_632)">
<path d="M32.5813 60L22.7189 49.3502C20.9192 47.5502 20.4872 44.7003 21.6391 42.3753C22.5029 40.6503 24.0867 39.4503 25.8864 39.0753C27.7581 38.7754 29.6298 39.3753 30.9255 40.8003L32.5093 42.4503L34.093 40.8003C35.3888 39.4503 37.2605 38.7754 39.1322 39.0753C41.0039 39.3753 42.5876 40.5753 43.3795 42.3753C44.5313 44.7003 44.0274 47.5502 42.2997 49.3502L32.5813 60Z" stroke="#025B75" stroke-width="3" stroke-linecap="round" stroke-linejoin="round"/>
<path d="M25.8 12.5L14.2 12.5C13.5 12.5 13 12 13 11.3L13 6.7C13 6 13.5 5.5 14.2 5.5L25.8 5.5C26.5 5.5 27 6 27 6.7L27 11.3C27 12 26.5 12.5 25.8 12.5Z" stroke="#025B75" stroke-width="3" stroke-linecap="round" stroke-linejoin="round"/>
<path d="M15 12.4999L15 16.4999C15 16.4999 9.2 22.2999 6.7 24.6999C6.3 25.0999 6 25.6999 6 26.3999L6 44.7999C6 44.7999 11.9 46.9999 11.9 30.3999L19 23.2999L17.4 30.3999C16.6 33.7999 19.7 35.2999 21.4 32.5999C22.9 29.5999 24.1 26.3999 25 23.1999L25 12.3999" stroke="#025B75" stroke-width="3" stroke-linecap="round" stroke-linejoin="round"/>
<path d="M50.8 12.5L39.2 12.5C38.5 12.5 38 12 38 11.3L38 6.7C38 6 38.5 5.5 39.2 5.5L50.8 5.5C51.5 5.5 52 6 52 6.7L52 11.3C52 12 51.5 12.5 50.8 12.5Z" stroke="#025B75" stroke-width="3" stroke-linecap="round" stroke-linejoin="round"/>
<path d="M50 12.4999L50 16.4999C50 16.4999 55.5 22.2999 58.3 24.7999C58.8 25.1999 59 25.7999 59 26.4999L59 44.7999C59 44.7999 53.1 46.9999 53.1 30.3999L46 23.2999L47.6 30.3999C48.4 33.7999 45.3 35.2999 43.6 32.5999C42.1 29.5999 40.9 26.3999 40 23.1999L40 12.3999" stroke="#025B75" stroke-width="3" stroke-linecap="round" stroke-linejoin="round"/>
</g>
<defs>
<clipPath id="clip0_5_632">
<rect width="64" height="64" fill="white" transform="translate(0.5)"/>
</clipPath>
</defs>
</svg>
