<svg width="65" height="64" viewBox="0 0 65 64" fill="none" xmlns="http://www.w3.org/2000/svg">
<path d="M30.4169 11.9999C31.3406 10.3999 33.65 10.3999 34.5738 11.9999L60.5545 56.9999C61.4783 58.5999 60.3236 60.5999 58.4761 60.5999H6.51455C4.66703 60.5999 3.51233 58.5999 4.43609 56.9999L30.4169 11.9999Z" stroke="#025B75" stroke-width="3" stroke-linejoin="round"/>
<path d="M30.2231 32.3999H34.0631C35.0231 32.3999 35.5031 32.8799 35.5031 33.8399V39.4799H41.1431C42.1031 39.4799 42.5831 39.9599 42.5831 41.0399V44.7599C42.5831 45.7199 42.1031 46.1999 41.1431 46.1999H35.5031V51.8399C35.5031 52.7999 35.0231 53.2799 34.0631 53.2799H30.2231C29.2631 53.2799 28.7831 52.7999 28.7831 51.8399V46.1999H23.1431C22.1831 46.1999 21.7031 45.7199 21.7031 44.7599V41.0399C21.7031 39.9599 22.1831 39.4799 23.1431 39.4799H28.7831V33.8399C28.7831 32.8799 29.2631 32.3999 30.2231 32.3999Z" stroke="#025B75" stroke-width="3" stroke-linecap="round" stroke-linejoin="round"/>
</svg>
