<svg width="65" height="64" viewBox="0 0 65 64" fill="none" xmlns="http://www.w3.org/2000/svg">
<path d="M15 17.5V55.5C15 59.5 12.8 60.5 10 60.5C7 60.5 5 59.5 5 55.5V41.5H15" stroke="#025B75" stroke-width="3" stroke-miterlimit="10" stroke-linecap="round" stroke-linejoin="round"/>
<path d="M22.7 38.5H46.7" stroke="#025B75" stroke-width="3" stroke-miterlimit="10" stroke-linecap="round" stroke-linejoin="round"/>
<path d="M22.7 45.5H46.7" stroke="#025B75" stroke-width="3" stroke-miterlimit="10" stroke-linecap="round" stroke-linejoin="round"/>
<path d="M22.7 52.5H46.7" stroke="#025B75" stroke-width="3" stroke-miterlimit="10" stroke-linecap="round" stroke-linejoin="round"/>
<path d="M38.5 60.5H10.5" stroke="#025B75" stroke-width="3" stroke-miterlimit="10" stroke-linejoin="round"/>
<path d="M33.5 7.5H54V55.8C54 58.4 51.8 60.5 49.1 60.5H36.5" stroke="#025B75" stroke-width="3" stroke-miterlimit="10" stroke-linejoin="round"/>
<path d="M15 55.8V7.5H33.5" stroke="#025B75" stroke-width="3" stroke-miterlimit="10" stroke-linejoin="round"/>
<path d="M29 17C29 16.1 28.1999 14.5 26.4 14.5C24.1 14.5 23.7 16.8 23.7 17.3C23.7 20.1 26.8 20.5 27.5 20.8C29 21.5 29.9 22.2 29.9 23.5C29.9 25.5 28.1 26.5 27.2 26.5" stroke="#025B75" stroke-width="3" stroke-miterlimit="10"/>
<path d="M23 28C23 28.9 23.7 30.5 25.4 30.5C27.6 30.5 28 28.2 28 27.7C28 24.9 25 24.5 24.3 24.2C22.8 23.5 22 22.8 22 21.5C22 19.5 23.7 18.5 24.6 18.5" stroke="#025B75" stroke-width="3" stroke-miterlimit="10"/>
</svg>
