<svg width="65" height="64" viewBox="0 0 65 64" fill="none" xmlns="http://www.w3.org/2000/svg">
<path d="M33 32.1C40.3 30.5 47.7 28.7 55 31.5C54.3 22.5 53.7 12.6 53 5.59998C45.2 5.89998 37.3 6.19998 29.5 8.19998C21.7 9.79998 13.8 13.1 6 10.6C6.7 19.6 7.3 29.5 8 36.5C9.5 36.3 11 36.1 12.5 36" stroke="#025B75" stroke-width="3" stroke-miterlimit="10" stroke-linejoin="round"/>
<path d="M23 32.5C28.5 32.5 33 31.6 33 30.5C33 29.4 28.5 28.5 23 28.5C17.5 28.5 13 29.4 13 30.5C13 31.6 17.5 32.5 23 32.5Z" stroke="#025B75" stroke-width="3" stroke-linecap="round" stroke-linejoin="round"/>
<path d="M33 30.5V36.5C33 37.6 28.5 38.5 23 38.5C17.5 38.5 13 37.6 13 36.5V30.5" stroke="#025B75" stroke-width="3" stroke-linecap="round" stroke-linejoin="round"/>
<path d="M33 36.5V42.5C33 43.6 28.5 44.5 23 44.5C17.5 44.5 13 43.6 13 42.5V36.5" stroke="#025B75" stroke-width="3" stroke-linecap="round" stroke-linejoin="round"/>
<path d="M48 44.5C53.5 44.5 58 43.6 58 42.5C58 41.4 53.5 40.5 48 40.5C42.5 40.5 38 41.4 38 42.5C38 43.6 42.5 44.5 48 44.5Z" stroke="#025B75" stroke-width="3" stroke-linecap="round" stroke-linejoin="round"/>
<path d="M58 42.5V48.5C58 49.6 53.5 50.5 48 50.5C42.5 50.5 38 49.6 38 48.5V42.5" stroke="#025B75" stroke-width="3" stroke-linecap="round" stroke-linejoin="round"/>
<path d="M58 48.5V54.5C58 55.6 53.5 56.5 48 56.5C42.5 56.5 38 55.6 38 54.5V48.5" stroke="#025B75" stroke-width="3" stroke-linecap="round" stroke-linejoin="round"/>
<path d="M33 42.5V48.5C33 49.6 28.5 50.5 23 50.5C17.5 50.5 13 49.6 13 48.5V42.5" stroke="#025B75" stroke-width="3" stroke-linecap="round" stroke-linejoin="round"/>
<path d="M33 48.5V54.5C33 55.6 28.5 56.5 23 56.5C17.5 56.5 13 55.6 13 54.5V48.5" stroke="#025B75" stroke-width="3" stroke-linecap="round" stroke-linejoin="round"/>
</svg>
